<?xml version="1.0" encoding="UTF-8"?>
<svg id="Livello_1" xmlns="http://www.w3.org/2000/svg" version="1.1" viewBox="0 0 380.7 372.73">
  <!-- Generator: Adobe Illustrator 30.2.1, SVG Export Plug-In . SVG Version: 2.1.1 Build 1)  -->
  <defs>
    <style>
      .st0 {
        fill: #f4e90f;
      }

      .st1 {
        fill: #fa0;
      }

      .st2 {
        fill: #5eff00;
      }

      .st3 {
        fill: #0b6efc;
      }

      .st4 {
        fill: #f4083a;
      }

      .st5 {
        fill: none;
        stroke: #28b0e6;
        stroke-miterlimit: 10;
      }

      .st6 {
        fill: #997a3d;
      }

      .st7 {
        fill: #06f9ff;
      }
    </style>
  </defs>
  <path class="st5" d="M-439-197.72"/>
  <g>
    <polygon class="st2" points="380.7 186.37 380.7 273.28 0 0 161.99 79.3 246 120.43 380.7 186.37"/>
    <polygon class="st0" points="380.7 372.73 213 372.73 0 0 380.7 372.73"/>
    <polygon class="st3" points="278 23.28 246 23.28 161.99 23.28 134 23.28 203.99 0 278 23.28"/>
    <polygon class="st3" points="246 23.28 246 120.43 161.99 79.3 161.99 23.28 246 23.28"/>
    <polygon class="st6" points="0 0 96 372.73 0 372.73 0 0"/>
  </g>
  <polyline class="st4" points="380.7 186.37 166.44 291.25 0 372.73 380.7 372.73"/>
  <polygon class="st1" points="0 0 166.44 291.25 83.22 331.99 0 0"/>
  <polyline class="st7" points="253.8 248.49 308.72 221.6 0 0"/>
</svg>